<mxfile host="app.diagrams.net" modified="2023-10-01T12:27:07.142Z" agent="Mozilla/5.0 (Windows NT 10.0; Win64; x64) AppleWebKit/537.36 (KHTML, like Gecko) Chrome/112.0.0.0 YaBrowser/23.5.3.904 Yowser/2.5 Safari/537.36" etag="2sSmvZBgh0EfVw2BzU8s" version="22.0.0" type="device">
  <diagram name="Страница — 1" id="Fkn4d4ggOS895twGQjuB">
    <mxGraphModel dx="1022" dy="1146" grid="1" gridSize="10" guides="1" tooltips="1" connect="1" arrows="1" fold="1" page="1" pageScale="1" pageWidth="827" pageHeight="1169" math="0" shadow="0">
      <root>
        <mxCell id="0" />
        <mxCell id="1" parent="0" />
        <mxCell id="hPSWKm6aiTyItyE_-EYs-1" value="" style="rounded=0;whiteSpace=wrap;html=1;" vertex="1" parent="1">
          <mxGeometry x="80" y="40" width="440" height="760" as="geometry" />
        </mxCell>
        <mxCell id="hPSWKm6aiTyItyE_-EYs-2" value="" style="rounded=0;whiteSpace=wrap;html=1;" vertex="1" parent="1">
          <mxGeometry x="80" y="40" width="440" height="60" as="geometry" />
        </mxCell>
        <mxCell id="hPSWKm6aiTyItyE_-EYs-3" value="&lt;font style=&quot;font-size: 24px;&quot;&gt;ACC Helper&lt;/font&gt;" style="text;html=1;align=center;verticalAlign=middle;resizable=0;points=[];autosize=1;strokeColor=none;fillColor=none;" vertex="1" parent="1">
          <mxGeometry x="80" y="50" width="150" height="40" as="geometry" />
        </mxCell>
        <mxCell id="hPSWKm6aiTyItyE_-EYs-4" value="&lt;font style=&quot;font-size: 18px;&quot;&gt;Время круга:&lt;/font&gt;" style="text;html=1;align=center;verticalAlign=middle;resizable=0;points=[];autosize=1;strokeColor=none;fillColor=none;" vertex="1" parent="1">
          <mxGeometry x="80" y="100" width="130" height="40" as="geometry" />
        </mxCell>
        <mxCell id="hPSWKm6aiTyItyE_-EYs-5" value="&lt;font style=&quot;font-size: 18px;&quot;&gt;мин&lt;/font&gt;" style="rounded=0;whiteSpace=wrap;html=1;" vertex="1" parent="1">
          <mxGeometry x="100" y="160" width="110" height="40" as="geometry" />
        </mxCell>
        <mxCell id="hPSWKm6aiTyItyE_-EYs-8" value="&lt;font style=&quot;font-size: 18px;&quot;&gt;сек&lt;/font&gt;" style="rounded=0;whiteSpace=wrap;html=1;" vertex="1" parent="1">
          <mxGeometry x="220" y="160" width="110" height="40" as="geometry" />
        </mxCell>
        <mxCell id="hPSWKm6aiTyItyE_-EYs-9" value="&lt;font style=&quot;font-size: 18px;&quot;&gt;мс&lt;/font&gt;" style="rounded=0;whiteSpace=wrap;html=1;" vertex="1" parent="1">
          <mxGeometry x="340" y="160" width="110" height="40" as="geometry" />
        </mxCell>
        <mxCell id="hPSWKm6aiTyItyE_-EYs-10" value="" style="ellipse;whiteSpace=wrap;html=1;aspect=fixed;" vertex="1" parent="1">
          <mxGeometry x="310" y="110" width="20" height="20" as="geometry" />
        </mxCell>
        <mxCell id="hPSWKm6aiTyItyE_-EYs-11" value="&lt;span style=&quot;font-size: 18px;&quot;&gt;Прогревочный круг&lt;/span&gt;" style="text;html=1;align=center;verticalAlign=middle;resizable=0;points=[];autosize=1;strokeColor=none;fillColor=none;" vertex="1" parent="1">
          <mxGeometry x="324" y="102" width="180" height="40" as="geometry" />
        </mxCell>
        <mxCell id="hPSWKm6aiTyItyE_-EYs-12" value="&lt;font style=&quot;font-size: 18px;&quot;&gt;Литров на круг:&lt;/font&gt;" style="text;html=1;align=center;verticalAlign=middle;resizable=0;points=[];autosize=1;strokeColor=none;fillColor=none;" vertex="1" parent="1">
          <mxGeometry x="80" y="220" width="150" height="40" as="geometry" />
        </mxCell>
        <mxCell id="hPSWKm6aiTyItyE_-EYs-13" value="&lt;font style=&quot;font-size: 18px;&quot;&gt;литры&lt;/font&gt;" style="rounded=0;whiteSpace=wrap;html=1;" vertex="1" parent="1">
          <mxGeometry x="100" y="280" width="110" height="40" as="geometry" />
        </mxCell>
        <mxCell id="hPSWKm6aiTyItyE_-EYs-14" value="&lt;span style=&quot;font-size: 18px;&quot;&gt;Время заезда:&lt;/span&gt;" style="text;html=1;align=center;verticalAlign=middle;resizable=0;points=[];autosize=1;strokeColor=none;fillColor=none;" vertex="1" parent="1">
          <mxGeometry x="285" y="220" width="140" height="40" as="geometry" />
        </mxCell>
        <mxCell id="hPSWKm6aiTyItyE_-EYs-15" value="&lt;font style=&quot;font-size: 18px;&quot;&gt;час&lt;/font&gt;" style="rounded=0;whiteSpace=wrap;html=1;" vertex="1" parent="1">
          <mxGeometry x="260" y="280" width="110" height="40" as="geometry" />
        </mxCell>
        <mxCell id="hPSWKm6aiTyItyE_-EYs-16" value="&lt;font style=&quot;font-size: 18px;&quot;&gt;мин&lt;/font&gt;" style="rounded=0;whiteSpace=wrap;html=1;" vertex="1" parent="1">
          <mxGeometry x="380" y="280" width="110" height="40" as="geometry" />
        </mxCell>
        <mxCell id="hPSWKm6aiTyItyE_-EYs-18" value="&lt;font style=&quot;font-size: 18px;&quot;&gt;Посчитать&lt;/font&gt;" style="rounded=0;whiteSpace=wrap;html=1;" vertex="1" parent="1">
          <mxGeometry x="190" y="350" width="200" height="60" as="geometry" />
        </mxCell>
        <mxCell id="hPSWKm6aiTyItyE_-EYs-19" value="&lt;font style=&quot;font-size: 18px;&quot;&gt;Результаты:&lt;/font&gt;" style="text;html=1;align=center;verticalAlign=middle;resizable=0;points=[];autosize=1;strokeColor=none;fillColor=none;" vertex="1" parent="1">
          <mxGeometry x="95" y="420" width="120" height="40" as="geometry" />
        </mxCell>
        <mxCell id="hPSWKm6aiTyItyE_-EYs-20" value="&lt;font style=&quot;font-size: 18px;&quot;&gt;безопас. стр&lt;/font&gt;" style="rounded=0;whiteSpace=wrap;html=1;" vertex="1" parent="1">
          <mxGeometry x="95" y="470" width="145" height="40" as="geometry" />
        </mxCell>
        <mxCell id="hPSWKm6aiTyItyE_-EYs-21" value="&lt;font style=&quot;font-size: 18px;&quot;&gt;рискован. стр&lt;/font&gt;" style="rounded=0;whiteSpace=wrap;html=1;" vertex="1" parent="1">
          <mxGeometry x="260" y="470" width="145" height="40" as="geometry" />
        </mxCell>
        <mxCell id="hPSWKm6aiTyItyE_-EYs-22" value="&lt;font style=&quot;font-size: 18px;&quot;&gt;Помощник&lt;/font&gt;" style="rounded=0;whiteSpace=wrap;html=1;" vertex="1" parent="1">
          <mxGeometry x="180" y="540" width="200" height="60" as="geometry" />
        </mxCell>
        <mxCell id="hPSWKm6aiTyItyE_-EYs-23" value="&lt;font style=&quot;font-size: 18px;&quot;&gt;Турниры&lt;/font&gt;" style="rounded=0;whiteSpace=wrap;html=1;" vertex="1" parent="1">
          <mxGeometry x="180" y="630" width="200" height="60" as="geometry" />
        </mxCell>
        <mxCell id="hPSWKm6aiTyItyE_-EYs-24" value="" style="rounded=0;whiteSpace=wrap;html=1;" vertex="1" parent="1">
          <mxGeometry x="80" y="920" width="440" height="760" as="geometry" />
        </mxCell>
        <mxCell id="hPSWKm6aiTyItyE_-EYs-25" value="" style="rounded=0;whiteSpace=wrap;html=1;" vertex="1" parent="1">
          <mxGeometry x="80" y="920" width="440" height="60" as="geometry" />
        </mxCell>
        <mxCell id="hPSWKm6aiTyItyE_-EYs-26" value="&lt;font style=&quot;font-size: 24px;&quot;&gt;ACC Helper&lt;/font&gt;" style="text;html=1;align=center;verticalAlign=middle;resizable=0;points=[];autosize=1;strokeColor=none;fillColor=none;" vertex="1" parent="1">
          <mxGeometry x="80" y="930" width="150" height="40" as="geometry" />
        </mxCell>
        <mxCell id="hPSWKm6aiTyItyE_-EYs-27" value="&lt;font style=&quot;font-size: 24px;&quot;&gt;ВОПРОС&lt;/font&gt;" style="text;html=1;align=center;verticalAlign=middle;resizable=0;points=[];autosize=1;strokeColor=none;fillColor=none;" vertex="1" parent="1">
          <mxGeometry x="90" y="1000" width="130" height="40" as="geometry" />
        </mxCell>
        <mxCell id="hPSWKm6aiTyItyE_-EYs-28" value="" style="ellipse;whiteSpace=wrap;html=1;aspect=fixed;" vertex="1" parent="1">
          <mxGeometry x="110" y="1080" width="20" height="20" as="geometry" />
        </mxCell>
        <mxCell id="hPSWKm6aiTyItyE_-EYs-29" value="" style="ellipse;whiteSpace=wrap;html=1;aspect=fixed;" vertex="1" parent="1">
          <mxGeometry x="110" y="1130" width="20" height="20" as="geometry" />
        </mxCell>
        <mxCell id="hPSWKm6aiTyItyE_-EYs-30" value="&lt;span style=&quot;font-size: 24px;&quot;&gt;Да&lt;/span&gt;" style="text;html=1;align=center;verticalAlign=middle;resizable=0;points=[];autosize=1;strokeColor=none;fillColor=none;" vertex="1" parent="1">
          <mxGeometry x="142.5" y="1070" width="50" height="40" as="geometry" />
        </mxCell>
        <mxCell id="hPSWKm6aiTyItyE_-EYs-31" value="&lt;span style=&quot;font-size: 24px;&quot;&gt;Нет&lt;/span&gt;" style="text;html=1;align=center;verticalAlign=middle;resizable=0;points=[];autosize=1;strokeColor=none;fillColor=none;" vertex="1" parent="1">
          <mxGeometry x="142.5" y="1120" width="60" height="40" as="geometry" />
        </mxCell>
        <mxCell id="hPSWKm6aiTyItyE_-EYs-32" value="&lt;font style=&quot;font-size: 18px;&quot;&gt;Получить совет&lt;/font&gt;" style="rounded=0;whiteSpace=wrap;html=1;" vertex="1" parent="1">
          <mxGeometry x="95" y="1180" width="200" height="60" as="geometry" />
        </mxCell>
        <mxCell id="hPSWKm6aiTyItyE_-EYs-33" value="&lt;font style=&quot;font-size: 24px;&quot;&gt;Совет&lt;/font&gt;" style="text;html=1;align=center;verticalAlign=middle;resizable=0;points=[];autosize=1;strokeColor=none;fillColor=none;" vertex="1" parent="1">
          <mxGeometry x="100" y="1260" width="90" height="40" as="geometry" />
        </mxCell>
        <mxCell id="hPSWKm6aiTyItyE_-EYs-34" value="&lt;font style=&quot;font-size: 18px;&quot;&gt;Следующий вопрос&lt;/font&gt;" style="rounded=0;whiteSpace=wrap;html=1;" vertex="1" parent="1">
          <mxGeometry x="200" y="1600" width="200" height="60" as="geometry" />
        </mxCell>
        <mxCell id="hPSWKm6aiTyItyE_-EYs-36" value="" style="rounded=0;whiteSpace=wrap;html=1;" vertex="1" parent="1">
          <mxGeometry x="640" y="920" width="440" height="760" as="geometry" />
        </mxCell>
        <mxCell id="hPSWKm6aiTyItyE_-EYs-37" value="" style="rounded=0;whiteSpace=wrap;html=1;" vertex="1" parent="1">
          <mxGeometry x="640" y="920" width="440" height="60" as="geometry" />
        </mxCell>
        <mxCell id="hPSWKm6aiTyItyE_-EYs-38" value="&lt;font style=&quot;font-size: 24px;&quot;&gt;ACC Helper&lt;/font&gt;" style="text;html=1;align=center;verticalAlign=middle;resizable=0;points=[];autosize=1;strokeColor=none;fillColor=none;" vertex="1" parent="1">
          <mxGeometry x="640" y="930" width="150" height="40" as="geometry" />
        </mxCell>
        <mxCell id="hPSWKm6aiTyItyE_-EYs-46" value="&lt;span style=&quot;font-size: 18px;&quot;&gt;Турнир&lt;/span&gt;" style="rounded=0;whiteSpace=wrap;html=1;" vertex="1" parent="1">
          <mxGeometry x="840" y="1030" width="200" height="60" as="geometry" />
        </mxCell>
        <mxCell id="hPSWKm6aiTyItyE_-EYs-47" value="&lt;span style=&quot;font-size: 18px;&quot;&gt;Чарт&lt;/span&gt;" style="rounded=0;whiteSpace=wrap;html=1;" vertex="1" parent="1">
          <mxGeometry x="840" y="1120" width="200" height="60" as="geometry" />
        </mxCell>
        <mxCell id="hPSWKm6aiTyItyE_-EYs-48" value="" style="shape=table;startSize=0;container=1;collapsible=0;childLayout=tableLayout;fontSize=16;" vertex="1" parent="1">
          <mxGeometry x="660" y="1210" width="400" height="150" as="geometry" />
        </mxCell>
        <mxCell id="hPSWKm6aiTyItyE_-EYs-49" value="" style="shape=tableRow;horizontal=0;startSize=0;swimlaneHead=0;swimlaneBody=0;strokeColor=inherit;top=0;left=0;bottom=0;right=0;collapsible=0;dropTarget=0;fillColor=none;points=[[0,0.5],[1,0.5]];portConstraint=eastwest;fontSize=16;" vertex="1" parent="hPSWKm6aiTyItyE_-EYs-48">
          <mxGeometry width="400" height="50" as="geometry" />
        </mxCell>
        <mxCell id="hPSWKm6aiTyItyE_-EYs-50" value="" style="shape=partialRectangle;html=1;whiteSpace=wrap;connectable=0;strokeColor=inherit;overflow=hidden;fillColor=none;top=0;left=0;bottom=0;right=0;pointerEvents=1;fontSize=16;" vertex="1" parent="hPSWKm6aiTyItyE_-EYs-49">
          <mxGeometry width="133" height="50" as="geometry">
            <mxRectangle width="133" height="50" as="alternateBounds" />
          </mxGeometry>
        </mxCell>
        <mxCell id="hPSWKm6aiTyItyE_-EYs-51" value="" style="shape=partialRectangle;html=1;whiteSpace=wrap;connectable=0;strokeColor=inherit;overflow=hidden;fillColor=none;top=0;left=0;bottom=0;right=0;pointerEvents=1;fontSize=16;" vertex="1" parent="hPSWKm6aiTyItyE_-EYs-49">
          <mxGeometry x="133" width="134" height="50" as="geometry">
            <mxRectangle width="134" height="50" as="alternateBounds" />
          </mxGeometry>
        </mxCell>
        <mxCell id="hPSWKm6aiTyItyE_-EYs-52" value="" style="shape=partialRectangle;html=1;whiteSpace=wrap;connectable=0;strokeColor=inherit;overflow=hidden;fillColor=none;top=0;left=0;bottom=0;right=0;pointerEvents=1;fontSize=16;" vertex="1" parent="hPSWKm6aiTyItyE_-EYs-49">
          <mxGeometry x="267" width="133" height="50" as="geometry">
            <mxRectangle width="133" height="50" as="alternateBounds" />
          </mxGeometry>
        </mxCell>
        <mxCell id="hPSWKm6aiTyItyE_-EYs-53" value="" style="shape=tableRow;horizontal=0;startSize=0;swimlaneHead=0;swimlaneBody=0;strokeColor=inherit;top=0;left=0;bottom=0;right=0;collapsible=0;dropTarget=0;fillColor=none;points=[[0,0.5],[1,0.5]];portConstraint=eastwest;fontSize=16;" vertex="1" parent="hPSWKm6aiTyItyE_-EYs-48">
          <mxGeometry y="50" width="400" height="50" as="geometry" />
        </mxCell>
        <mxCell id="hPSWKm6aiTyItyE_-EYs-54" value="" style="shape=partialRectangle;html=1;whiteSpace=wrap;connectable=0;strokeColor=inherit;overflow=hidden;fillColor=none;top=0;left=0;bottom=0;right=0;pointerEvents=1;fontSize=16;" vertex="1" parent="hPSWKm6aiTyItyE_-EYs-53">
          <mxGeometry width="133" height="50" as="geometry">
            <mxRectangle width="133" height="50" as="alternateBounds" />
          </mxGeometry>
        </mxCell>
        <mxCell id="hPSWKm6aiTyItyE_-EYs-55" value="" style="shape=partialRectangle;html=1;whiteSpace=wrap;connectable=0;strokeColor=inherit;overflow=hidden;fillColor=none;top=0;left=0;bottom=0;right=0;pointerEvents=1;fontSize=16;" vertex="1" parent="hPSWKm6aiTyItyE_-EYs-53">
          <mxGeometry x="133" width="134" height="50" as="geometry">
            <mxRectangle width="134" height="50" as="alternateBounds" />
          </mxGeometry>
        </mxCell>
        <mxCell id="hPSWKm6aiTyItyE_-EYs-56" value="" style="shape=partialRectangle;html=1;whiteSpace=wrap;connectable=0;strokeColor=inherit;overflow=hidden;fillColor=none;top=0;left=0;bottom=0;right=0;pointerEvents=1;fontSize=16;" vertex="1" parent="hPSWKm6aiTyItyE_-EYs-53">
          <mxGeometry x="267" width="133" height="50" as="geometry">
            <mxRectangle width="133" height="50" as="alternateBounds" />
          </mxGeometry>
        </mxCell>
        <mxCell id="hPSWKm6aiTyItyE_-EYs-57" value="" style="shape=tableRow;horizontal=0;startSize=0;swimlaneHead=0;swimlaneBody=0;strokeColor=inherit;top=0;left=0;bottom=0;right=0;collapsible=0;dropTarget=0;fillColor=none;points=[[0,0.5],[1,0.5]];portConstraint=eastwest;fontSize=16;" vertex="1" parent="hPSWKm6aiTyItyE_-EYs-48">
          <mxGeometry y="100" width="400" height="50" as="geometry" />
        </mxCell>
        <mxCell id="hPSWKm6aiTyItyE_-EYs-58" value="" style="shape=partialRectangle;html=1;whiteSpace=wrap;connectable=0;strokeColor=inherit;overflow=hidden;fillColor=none;top=0;left=0;bottom=0;right=0;pointerEvents=1;fontSize=16;" vertex="1" parent="hPSWKm6aiTyItyE_-EYs-57">
          <mxGeometry width="133" height="50" as="geometry">
            <mxRectangle width="133" height="50" as="alternateBounds" />
          </mxGeometry>
        </mxCell>
        <mxCell id="hPSWKm6aiTyItyE_-EYs-59" value="" style="shape=partialRectangle;html=1;whiteSpace=wrap;connectable=0;strokeColor=inherit;overflow=hidden;fillColor=none;top=0;left=0;bottom=0;right=0;pointerEvents=1;fontSize=16;" vertex="1" parent="hPSWKm6aiTyItyE_-EYs-57">
          <mxGeometry x="133" width="134" height="50" as="geometry">
            <mxRectangle width="134" height="50" as="alternateBounds" />
          </mxGeometry>
        </mxCell>
        <mxCell id="hPSWKm6aiTyItyE_-EYs-60" value="" style="shape=partialRectangle;html=1;whiteSpace=wrap;connectable=0;strokeColor=inherit;overflow=hidden;fillColor=none;top=0;left=0;bottom=0;right=0;pointerEvents=1;fontSize=16;" vertex="1" parent="hPSWKm6aiTyItyE_-EYs-57">
          <mxGeometry x="267" width="133" height="50" as="geometry">
            <mxRectangle width="133" height="50" as="alternateBounds" />
          </mxGeometry>
        </mxCell>
        <mxCell id="hPSWKm6aiTyItyE_-EYs-61" value="" style="shape=table;startSize=0;container=1;collapsible=0;childLayout=tableLayout;fontSize=16;" vertex="1" parent="1">
          <mxGeometry x="660" y="1360" width="400" height="150" as="geometry" />
        </mxCell>
        <mxCell id="hPSWKm6aiTyItyE_-EYs-62" value="" style="shape=tableRow;horizontal=0;startSize=0;swimlaneHead=0;swimlaneBody=0;strokeColor=inherit;top=0;left=0;bottom=0;right=0;collapsible=0;dropTarget=0;fillColor=none;points=[[0,0.5],[1,0.5]];portConstraint=eastwest;fontSize=16;" vertex="1" parent="hPSWKm6aiTyItyE_-EYs-61">
          <mxGeometry width="400" height="50" as="geometry" />
        </mxCell>
        <mxCell id="hPSWKm6aiTyItyE_-EYs-63" value="" style="shape=partialRectangle;html=1;whiteSpace=wrap;connectable=0;strokeColor=inherit;overflow=hidden;fillColor=none;top=0;left=0;bottom=0;right=0;pointerEvents=1;fontSize=16;" vertex="1" parent="hPSWKm6aiTyItyE_-EYs-62">
          <mxGeometry width="133" height="50" as="geometry">
            <mxRectangle width="133" height="50" as="alternateBounds" />
          </mxGeometry>
        </mxCell>
        <mxCell id="hPSWKm6aiTyItyE_-EYs-64" value="" style="shape=partialRectangle;html=1;whiteSpace=wrap;connectable=0;strokeColor=inherit;overflow=hidden;fillColor=none;top=0;left=0;bottom=0;right=0;pointerEvents=1;fontSize=16;" vertex="1" parent="hPSWKm6aiTyItyE_-EYs-62">
          <mxGeometry x="133" width="134" height="50" as="geometry">
            <mxRectangle width="134" height="50" as="alternateBounds" />
          </mxGeometry>
        </mxCell>
        <mxCell id="hPSWKm6aiTyItyE_-EYs-65" value="" style="shape=partialRectangle;html=1;whiteSpace=wrap;connectable=0;strokeColor=inherit;overflow=hidden;fillColor=none;top=0;left=0;bottom=0;right=0;pointerEvents=1;fontSize=16;" vertex="1" parent="hPSWKm6aiTyItyE_-EYs-62">
          <mxGeometry x="267" width="133" height="50" as="geometry">
            <mxRectangle width="133" height="50" as="alternateBounds" />
          </mxGeometry>
        </mxCell>
        <mxCell id="hPSWKm6aiTyItyE_-EYs-66" value="" style="shape=tableRow;horizontal=0;startSize=0;swimlaneHead=0;swimlaneBody=0;strokeColor=inherit;top=0;left=0;bottom=0;right=0;collapsible=0;dropTarget=0;fillColor=none;points=[[0,0.5],[1,0.5]];portConstraint=eastwest;fontSize=16;" vertex="1" parent="hPSWKm6aiTyItyE_-EYs-61">
          <mxGeometry y="50" width="400" height="50" as="geometry" />
        </mxCell>
        <mxCell id="hPSWKm6aiTyItyE_-EYs-67" value="" style="shape=partialRectangle;html=1;whiteSpace=wrap;connectable=0;strokeColor=inherit;overflow=hidden;fillColor=none;top=0;left=0;bottom=0;right=0;pointerEvents=1;fontSize=16;" vertex="1" parent="hPSWKm6aiTyItyE_-EYs-66">
          <mxGeometry width="133" height="50" as="geometry">
            <mxRectangle width="133" height="50" as="alternateBounds" />
          </mxGeometry>
        </mxCell>
        <mxCell id="hPSWKm6aiTyItyE_-EYs-68" value="" style="shape=partialRectangle;html=1;whiteSpace=wrap;connectable=0;strokeColor=inherit;overflow=hidden;fillColor=none;top=0;left=0;bottom=0;right=0;pointerEvents=1;fontSize=16;" vertex="1" parent="hPSWKm6aiTyItyE_-EYs-66">
          <mxGeometry x="133" width="134" height="50" as="geometry">
            <mxRectangle width="134" height="50" as="alternateBounds" />
          </mxGeometry>
        </mxCell>
        <mxCell id="hPSWKm6aiTyItyE_-EYs-69" value="" style="shape=partialRectangle;html=1;whiteSpace=wrap;connectable=0;strokeColor=inherit;overflow=hidden;fillColor=none;top=0;left=0;bottom=0;right=0;pointerEvents=1;fontSize=16;" vertex="1" parent="hPSWKm6aiTyItyE_-EYs-66">
          <mxGeometry x="267" width="133" height="50" as="geometry">
            <mxRectangle width="133" height="50" as="alternateBounds" />
          </mxGeometry>
        </mxCell>
        <mxCell id="hPSWKm6aiTyItyE_-EYs-70" value="" style="shape=tableRow;horizontal=0;startSize=0;swimlaneHead=0;swimlaneBody=0;strokeColor=inherit;top=0;left=0;bottom=0;right=0;collapsible=0;dropTarget=0;fillColor=none;points=[[0,0.5],[1,0.5]];portConstraint=eastwest;fontSize=16;" vertex="1" parent="hPSWKm6aiTyItyE_-EYs-61">
          <mxGeometry y="100" width="400" height="50" as="geometry" />
        </mxCell>
        <mxCell id="hPSWKm6aiTyItyE_-EYs-71" value="" style="shape=partialRectangle;html=1;whiteSpace=wrap;connectable=0;strokeColor=inherit;overflow=hidden;fillColor=none;top=0;left=0;bottom=0;right=0;pointerEvents=1;fontSize=16;" vertex="1" parent="hPSWKm6aiTyItyE_-EYs-70">
          <mxGeometry width="133" height="50" as="geometry">
            <mxRectangle width="133" height="50" as="alternateBounds" />
          </mxGeometry>
        </mxCell>
        <mxCell id="hPSWKm6aiTyItyE_-EYs-72" value="" style="shape=partialRectangle;html=1;whiteSpace=wrap;connectable=0;strokeColor=inherit;overflow=hidden;fillColor=none;top=0;left=0;bottom=0;right=0;pointerEvents=1;fontSize=16;" vertex="1" parent="hPSWKm6aiTyItyE_-EYs-70">
          <mxGeometry x="133" width="134" height="50" as="geometry">
            <mxRectangle width="134" height="50" as="alternateBounds" />
          </mxGeometry>
        </mxCell>
        <mxCell id="hPSWKm6aiTyItyE_-EYs-73" value="" style="shape=partialRectangle;html=1;whiteSpace=wrap;connectable=0;strokeColor=inherit;overflow=hidden;fillColor=none;top=0;left=0;bottom=0;right=0;pointerEvents=1;fontSize=16;" vertex="1" parent="hPSWKm6aiTyItyE_-EYs-70">
          <mxGeometry x="267" width="133" height="50" as="geometry">
            <mxRectangle width="133" height="50" as="alternateBounds" />
          </mxGeometry>
        </mxCell>
        <mxCell id="hPSWKm6aiTyItyE_-EYs-74" value="" style="shape=table;startSize=0;container=1;collapsible=0;childLayout=tableLayout;fontSize=16;" vertex="1" parent="1">
          <mxGeometry x="660" y="1510" width="400" height="150" as="geometry" />
        </mxCell>
        <mxCell id="hPSWKm6aiTyItyE_-EYs-75" value="" style="shape=tableRow;horizontal=0;startSize=0;swimlaneHead=0;swimlaneBody=0;strokeColor=inherit;top=0;left=0;bottom=0;right=0;collapsible=0;dropTarget=0;fillColor=none;points=[[0,0.5],[1,0.5]];portConstraint=eastwest;fontSize=16;" vertex="1" parent="hPSWKm6aiTyItyE_-EYs-74">
          <mxGeometry width="400" height="50" as="geometry" />
        </mxCell>
        <mxCell id="hPSWKm6aiTyItyE_-EYs-76" value="" style="shape=partialRectangle;html=1;whiteSpace=wrap;connectable=0;strokeColor=inherit;overflow=hidden;fillColor=none;top=0;left=0;bottom=0;right=0;pointerEvents=1;fontSize=16;" vertex="1" parent="hPSWKm6aiTyItyE_-EYs-75">
          <mxGeometry width="133" height="50" as="geometry">
            <mxRectangle width="133" height="50" as="alternateBounds" />
          </mxGeometry>
        </mxCell>
        <mxCell id="hPSWKm6aiTyItyE_-EYs-77" value="" style="shape=partialRectangle;html=1;whiteSpace=wrap;connectable=0;strokeColor=inherit;overflow=hidden;fillColor=none;top=0;left=0;bottom=0;right=0;pointerEvents=1;fontSize=16;" vertex="1" parent="hPSWKm6aiTyItyE_-EYs-75">
          <mxGeometry x="133" width="134" height="50" as="geometry">
            <mxRectangle width="134" height="50" as="alternateBounds" />
          </mxGeometry>
        </mxCell>
        <mxCell id="hPSWKm6aiTyItyE_-EYs-78" value="" style="shape=partialRectangle;html=1;whiteSpace=wrap;connectable=0;strokeColor=inherit;overflow=hidden;fillColor=none;top=0;left=0;bottom=0;right=0;pointerEvents=1;fontSize=16;" vertex="1" parent="hPSWKm6aiTyItyE_-EYs-75">
          <mxGeometry x="267" width="133" height="50" as="geometry">
            <mxRectangle width="133" height="50" as="alternateBounds" />
          </mxGeometry>
        </mxCell>
        <mxCell id="hPSWKm6aiTyItyE_-EYs-79" value="" style="shape=tableRow;horizontal=0;startSize=0;swimlaneHead=0;swimlaneBody=0;strokeColor=inherit;top=0;left=0;bottom=0;right=0;collapsible=0;dropTarget=0;fillColor=none;points=[[0,0.5],[1,0.5]];portConstraint=eastwest;fontSize=16;" vertex="1" parent="hPSWKm6aiTyItyE_-EYs-74">
          <mxGeometry y="50" width="400" height="50" as="geometry" />
        </mxCell>
        <mxCell id="hPSWKm6aiTyItyE_-EYs-80" value="" style="shape=partialRectangle;html=1;whiteSpace=wrap;connectable=0;strokeColor=inherit;overflow=hidden;fillColor=none;top=0;left=0;bottom=0;right=0;pointerEvents=1;fontSize=16;" vertex="1" parent="hPSWKm6aiTyItyE_-EYs-79">
          <mxGeometry width="133" height="50" as="geometry">
            <mxRectangle width="133" height="50" as="alternateBounds" />
          </mxGeometry>
        </mxCell>
        <mxCell id="hPSWKm6aiTyItyE_-EYs-81" value="" style="shape=partialRectangle;html=1;whiteSpace=wrap;connectable=0;strokeColor=inherit;overflow=hidden;fillColor=none;top=0;left=0;bottom=0;right=0;pointerEvents=1;fontSize=16;" vertex="1" parent="hPSWKm6aiTyItyE_-EYs-79">
          <mxGeometry x="133" width="134" height="50" as="geometry">
            <mxRectangle width="134" height="50" as="alternateBounds" />
          </mxGeometry>
        </mxCell>
        <mxCell id="hPSWKm6aiTyItyE_-EYs-82" value="" style="shape=partialRectangle;html=1;whiteSpace=wrap;connectable=0;strokeColor=inherit;overflow=hidden;fillColor=none;top=0;left=0;bottom=0;right=0;pointerEvents=1;fontSize=16;" vertex="1" parent="hPSWKm6aiTyItyE_-EYs-79">
          <mxGeometry x="267" width="133" height="50" as="geometry">
            <mxRectangle width="133" height="50" as="alternateBounds" />
          </mxGeometry>
        </mxCell>
        <mxCell id="hPSWKm6aiTyItyE_-EYs-83" value="" style="shape=tableRow;horizontal=0;startSize=0;swimlaneHead=0;swimlaneBody=0;strokeColor=inherit;top=0;left=0;bottom=0;right=0;collapsible=0;dropTarget=0;fillColor=none;points=[[0,0.5],[1,0.5]];portConstraint=eastwest;fontSize=16;" vertex="1" parent="hPSWKm6aiTyItyE_-EYs-74">
          <mxGeometry y="100" width="400" height="50" as="geometry" />
        </mxCell>
        <mxCell id="hPSWKm6aiTyItyE_-EYs-84" value="" style="shape=partialRectangle;html=1;whiteSpace=wrap;connectable=0;strokeColor=inherit;overflow=hidden;fillColor=none;top=0;left=0;bottom=0;right=0;pointerEvents=1;fontSize=16;" vertex="1" parent="hPSWKm6aiTyItyE_-EYs-83">
          <mxGeometry width="133" height="50" as="geometry">
            <mxRectangle width="133" height="50" as="alternateBounds" />
          </mxGeometry>
        </mxCell>
        <mxCell id="hPSWKm6aiTyItyE_-EYs-85" value="" style="shape=partialRectangle;html=1;whiteSpace=wrap;connectable=0;strokeColor=inherit;overflow=hidden;fillColor=none;top=0;left=0;bottom=0;right=0;pointerEvents=1;fontSize=16;" vertex="1" parent="hPSWKm6aiTyItyE_-EYs-83">
          <mxGeometry x="133" width="134" height="50" as="geometry">
            <mxRectangle width="134" height="50" as="alternateBounds" />
          </mxGeometry>
        </mxCell>
        <mxCell id="hPSWKm6aiTyItyE_-EYs-86" value="" style="shape=partialRectangle;html=1;whiteSpace=wrap;connectable=0;strokeColor=inherit;overflow=hidden;fillColor=none;top=0;left=0;bottom=0;right=0;pointerEvents=1;fontSize=16;" vertex="1" parent="hPSWKm6aiTyItyE_-EYs-83">
          <mxGeometry x="267" width="133" height="50" as="geometry">
            <mxRectangle width="133" height="50" as="alternateBounds" />
          </mxGeometry>
        </mxCell>
      </root>
    </mxGraphModel>
  </diagram>
</mxfile>
